<svg width="499.99999999999994" height="499.99999999999994" xmlns="http://www.w3.org/2000/svg">

 <g>
  <title>background</title>
  <rect fill="none" id="canvas_background" height="502" width="502" y="-1" x="-1"/>
 </g>
 <g>
  <title>Layer 1</title>
  <path id="svg_1" fill-rule="evenodd" fill="#ffffff" d="m243.732,119.899c-26.893,26.894 -20.625,61.868 -29.622,95.939l-150.814,-152.27c-3.274,-3.46 -7.999,-5.634 -13.177,-5.634c-9.995,0 -18.17,8.083 -18.17,18.17l0,6.176c0,54.788 23.623,156.183 97.398,237.404l-86.857,86.773c-14.086,14.072 -14.086,36.971 0,51.052c14.08,14.092 36.977,14.092 50.968,0l86.582,-86.675l51.791,51.79l44.698,-40.612l75.506,75.497c13.983,14.092 36.883,14.092 50.962,0c14.092,-14.081 14.092,-36.979 0,-51.052l-119.476,-120.48c34.442,-9.449 69.686,-2.812 96.585,-29.715l81.221,-81.219c8.999,-8.909 8.999,-23.441 0,-32.43c-8.997,-9.004 -23.528,-9.004 -32.438,0l-71.493,71.407c-5.36,5.358 -14.092,5.358 -19.448,0c-5.448,-5.358 -5.448,-14.08 0,-19.438l71.413,-71.504c8.99,-8.909 8.99,-23.441 0,-32.438c-8.995,-8.988 -23.53,-8.988 -32.429,0l-71.512,71.415c-5.36,5.448 -14.08,5.448 -19.441,0c-5.356,-5.358 -5.356,-14.09 0,-19.441l71.417,-71.504c8.994,-8.907 8.994,-23.442 0,-32.438c-8.998,-8.996 -23.528,-8.996 -32.439,0l-81.225,81.227z" clip-rule="evenodd"/>
 </g>
</svg>